<svg xmlns="http://www.w3.org/2000/svg" viewBox="0 0 512 512" role="img" aria-labelledby="t">
  <title id="t">HotelPMS</title>
  <defs>
    <linearGradient id="g" x1="28" y1="22" x2="101" y2="107" gradientUnits="userSpaceOnUse">
      <stop offset="0" stop-color="#e6c77f"/>
      <stop offset=".52" stop-color="#c9a24b"/>
      <stop offset="1" stop-color="#9d7020"/>
    </linearGradient>
  </defs>
  <rect width="512" height="512" rx="92" fill="#fffaf0"/>
  <g transform="translate(128 36) scale(2)">
    <rect x="5" y="5" width="118" height="118" rx="30" fill="#061f45"/>
    <rect x="7" y="7" width="114" height="114" rx="28" fill="none" stroke="url(#g)" stroke-width="2" opacity=".72"/>
    <path d="M29 96V58c0-15 14-27 35-36 21 9 35 21 35 36v38" fill="none" stroke="url(#g)" stroke-width="8" stroke-linecap="round" stroke-linejoin="round"/>
    <path d="M46 93V59M82 93V59M46 73H82" fill="none" stroke="#fffaf0" stroke-width="7" stroke-linecap="round"/>
    <path d="M58 96V85c0-5 3-8 6-8s6 3 6 8v11" fill="none" stroke="url(#g)" stroke-width="5" stroke-linecap="round"/>
    <path d="M25 101c24-8 54-8 78 0" fill="none" stroke="url(#g)" stroke-width="4" stroke-linecap="round"/>
  </g>
  <text x="256" y="354" text-anchor="middle" fill="#082B5C" font-family="Manrope, 'Avenir Next', Arial, sans-serif" font-size="65" font-weight="650" letter-spacing="-2"><tspan>Hotel</tspan><tspan fill="#B8892E">PMS</tspan></text>
  <text x="256" y="402" text-anchor="middle" fill="#5b6572" font-family="Manrope, Arial, sans-serif" font-size="15" font-weight="600" letter-spacing="4">HOSPITALITY MANAGEMENT SYSTEM</text>
  <path d="M134 438h244" stroke="#c9a24b" stroke-width="2" opacity=".55"/>
</svg>
